<?xml version="1.0" encoding="UTF-8"?>
<svg width="1920px" height="799px" viewBox="0 0 1920 799" version="1.1" xmlns="http://www.w3.org/2000/svg" xmlns:xlink="http://www.w3.org/1999/xlink">
    <!-- Generator: Sketch 61 (89581) - https://sketch.com -->
    <title>bg-footer</title>
    <desc>Created with Sketch.</desc>
    <defs>
        <linearGradient x1="32.3825385%" y1="42.8578721%" x2="80.3815384%" y2="34.1912085%" id="linearGradient-1">
            <stop stop-color="#E9F0F9" stop-opacity="0.288516171" offset="0%"></stop>
            <stop stop-color="#FFFFFF" offset="100%"></stop>
        </linearGradient>
        <linearGradient x1="33.0793145%" y1="42.729244%" x2="80.3815384%" y2="34.1850771%" id="linearGradient-2">
            <stop stop-color="#E9F2FF" stop-opacity="0.592029065" offset="0%"></stop>
            <stop stop-color="#FFFFFF" offset="100%"></stop>
        </linearGradient>
        <linearGradient x1="50%" y1="0.182115709%" x2="50%" y2="99.1174253%" id="linearGradient-3">
            <stop stop-color="#EFF4FB" offset="0%"></stop>
            <stop stop-color="#E2EFFF" offset="100%"></stop>
        </linearGradient>
        <linearGradient x1="50%" y1="0.182115709%" x2="50%" y2="99.1174253%" id="linearGradient-4">
            <stop stop-color="#EFF4FB" offset="0%"></stop>
            <stop stop-color="#E2EFFF" offset="100%"></stop>
        </linearGradient>
    </defs>
    <g id="bg-footer" stroke="none" stroke-width="1" fill="none" fill-rule="evenodd">
        <rect fill="#FFFFFF" x="0" y="0" width="1920" height="799"></rect>
        <path d="M-279,170.228594 L210.50785,24.1161728 C217.846079,21.9257964 225.708878,22.2769499 232.822638,25.1127539 L744.386923,229.040931 C752.162188,232.140435 760.807553,232.262911 768.667498,229.384906 L1036.11786,131.455017 C1043.46763,128.763818 1051.52085,128.690839 1058.91818,131.248397 L1341.71978,229.024354 C1350.63017,232.105039 1360.41971,231.347612 1368.75019,226.932982 L1997,-106 L1997,-106 L1997,1010.29458 L1443.54388,927.577839 C1438.76805,926.864067 1433.89496,927.175792 1429.249,928.492263 L1207.11959,991.434429 L1207.11959,991.434429 L443.883819,1207.70346 C436.358801,1209.83574 428.328733,1209.30843 421.147173,1206.21041 L29.3511536,1037.19574 C21.6284595,1033.86429 12.945055,1033.51346 4.9787734,1036.21103 L-279,1132.37313 L-279,1132.37313 L-279,170.228594 Z" id="Path-4" fill="url(#linearGradient-1)"></path>
        <path d="M-4,175.17282 L537.878237,13.3970826 C545.217689,11.2059166 553.081995,11.5571908 560.196863,14.3939866 L1127.66251,240.650348 C1135.43897,243.750931 1144.086,243.873448 1151.94719,240.99443 L1449.82529,131.90194 C1457.17624,129.209789 1465.231,129.136785 1472.62954,131.695253 L1787.65593,240.633746 C1796.56771,243.715507 1806.35909,242.957837 1814.69067,238.541763 L2510,-130 L2510,-130 L2510,1103.26394 L1897.91295,1011.76678 C1893.13624,1011.05274 1888.26222,1011.36458 1883.61545,1012.68154 L1637.52225,1082.42756 L1637.52225,1082.42756 L793.260888,1321.70224 C785.734616,1323.83528 777.703019,1323.30779 770.520376,1320.20871 L335.342691,1132.44346 C327.618838,1129.11086 318.933772,1128.75992 310.966212,1131.45845 L-4,1238.13433 L-4,1238.13433 L-4,342 L-4,175.17282 Z" id="Path-4" fill="url(#linearGradient-2)" opacity="0.639671689"></path>
        <path d="M1322.6718,110.875674 L1353.11451,238.354506 C1355.68014,249.098104 1349.0506,259.887369 1338.307,262.453005 C1336.78523,262.816413 1335.22607,263 1333.6615,263 L1288.3385,263 C1277.2928,263 1268.3385,254.045695 1268.3385,243 C1268.3385,241.435437 1268.52208,239.876279 1268.88549,238.354506 L1299.3282,110.875674 C1300.86758,104.429515 1307.34114,100.451786 1313.7873,101.991168 C1318.18646,103.041714 1321.62126,106.476509 1322.6718,110.875674 Z" id="Triangle" fill="url(#linearGradient-3)"></path>
        <path d="M1182.1619,137.082908 L1199.40355,208.171554 C1200.96566,214.612243 1197.01078,221.099792 1190.5701,222.661899 C1189.64405,222.8865 1188.69454,223 1187.74165,223 L1153.25835,223 C1146.63093,223 1141.25835,217.627417 1141.25835,211 C1141.25835,210.047105 1141.37185,209.097601 1141.59645,208.171554 L1158.8381,137.082908 C1160.40021,130.642219 1166.88776,126.687347 1173.32845,128.249454 C1177.69428,129.308332 1181.10302,132.717073 1182.1619,137.082908 Z" id="Triangle" fill="url(#linearGradient-4)"></path>
        <path d="M453.666091,148.414278 L478.431059,251.188894 C479.98359,257.631898 476.019078,264.11356 469.576074,265.666091 C468.655495,265.887917 467.711895,266 466.764968,266 L417.235032,266 C410.607615,266 405.235032,260.627417 405.235032,254 C405.235032,253.053072 405.347115,252.109473 405.568941,251.188894 L430.333909,148.414278 C431.88644,141.971274 438.368102,138.006762 444.811106,139.559293 C449.190986,140.614686 452.610698,144.034398 453.666091,148.414278 Z" id="Triangle" fill="#DAEAFD"></path>
    </g>
</svg>