<?xml version="1.0" encoding="UTF-8"?>
<svg width="1920px" height="799px" viewBox="0 0 1920 799" version="1.1" xmlns="http://www.w3.org/2000/svg" xmlns:xlink="http://www.w3.org/1999/xlink">
    <!-- Generator: Sketch 61 (89581) - https://sketch.com -->
    <title>bg</title>
    <desc>Created with Sketch.</desc>
    <defs>
        <linearGradient x1="41.6931609%" y1="44.6105613%" x2="51.4246742%" y2="58.8653323%" id="linearGradient-1">
            <stop stop-color="#FBFDFF" offset="0%"></stop>
            <stop stop-color="#F5F9FE" offset="100%"></stop>
        </linearGradient>
        <linearGradient x1="50%" y1="26.0309474%" x2="50.200466%" y2="56.7047899%" id="linearGradient-2">
            <stop stop-color="#FAFDFF" offset="0%"></stop>
            <stop stop-color="#EFF6FF" offset="13.8645481%"></stop>
            <stop stop-color="#F8FBFF" stop-opacity="0" offset="100%"></stop>
        </linearGradient>
        <linearGradient x1="50%" y1="0.182115709%" x2="50%" y2="100%" id="linearGradient-3">
            <stop stop-color="#FFFFFF" offset="0%"></stop>
            <stop stop-color="#DAE6F6" offset="100%"></stop>
        </linearGradient>
        <linearGradient x1="50%" y1="0.182115709%" x2="50%" y2="99.1174253%" id="linearGradient-4">
            <stop stop-color="#EFF4FB" offset="0%"></stop>
            <stop stop-color="#E2EFFF" offset="100%"></stop>
        </linearGradient>
        <linearGradient x1="50%" y1="0.182115709%" x2="50%" y2="99.1174253%" id="linearGradient-5">
            <stop stop-color="#EFF4FB" offset="0%"></stop>
            <stop stop-color="#E2EFFF" offset="100%"></stop>
        </linearGradient>
    </defs>
    <g id="bg" stroke="none" stroke-width="1" fill="none" fill-rule="evenodd">
        <rect id="Rectangle" fill="url(#linearGradient-1)" x="0" y="0" width="1920" height="794"></rect>
        <path d="M1411.29756,0 L950.322854,209.18764 C919.644505,223.109296 906.060521,259.264744 919.982177,289.943094 C928.877232,309.544611 947.444677,323.006988 968.840199,325.367737 L1646.75944,400.16829 C1680.24559,403.8631 1704.39624,434.00422 1700.70143,467.490366 C1697.79054,493.871822 1678.15506,515.343304 1652.13816,520.594512 L1328.97611,585.820992 C1295.95269,592.486383 1274.58529,624.66052 1281.25068,657.683939 C1286.26322,682.518382 1306.10475,701.66929 1331.10112,705.799248 L1602.8282,750.694621 C1636.06694,756.186402 1658.5603,787.583695 1653.06851,820.822437 C1649.0895,844.905244 1631.13708,864.297322 1607.43208,870.118593 C1363.42599,930.039531 1218.88862,960 1173.81997,960" id="Path-6" stroke="url(#linearGradient-2)" stroke-width="50"></path>
        <path d="M939.988048,105.924103 L956.360431,209.888737 C958.078734,220.799961 950.626399,231.038216 939.715175,232.756519 C938.686012,232.918592 937.645758,233 936.603912,233 L904.305248,233 C893.259553,233 884.305248,224.045695 884.305248,213 C884.305248,211.983819 884.382695,210.969115 884.536915,209.964705 L900.5,106 C902.174786,95.0924175 912.374812,87.6077573 923.282394,89.2825436 C931.879418,90.602559 938.634995,97.3322169 939.988048,105.924103 Z" id="Triangle" fill="url(#linearGradient-3)"></path>
        <path d="M1188.93742,269.210095 L1203.01192,327.289706 C1205.61335,338.024694 1199.01979,348.835992 1188.2848,351.437416 C1186.74258,351.811144 1185.16136,352 1183.57451,352 L1155.42549,352 C1144.3798,352 1135.42549,343.045695 1135.42549,332 C1135.42549,330.413143 1135.61435,328.831926 1135.98808,327.289706 L1150.06258,269.210095 C1152.66401,258.475107 1163.47531,251.88155 1174.21029,254.482974 C1181.48975,256.247013 1187.17338,261.93064 1188.93742,269.210095 Z" id="Triangle" fill="url(#linearGradient-4)"></path>
        <path d="M1257.75,318.5 L1268.05826,361.318923 C1270.64355,372.057809 1264.03375,382.859185 1253.29486,385.444473 C1251.76186,385.813529 1250.19059,386 1248.61379,386 L1234.38621,386 C1223.34052,386 1214.38621,377.045695 1214.38621,366 C1214.38621,364.423198 1214.57268,362.851928 1214.94174,361.318923 L1225.25,318.5 C1227.41056,309.525373 1236.43741,304.001479 1245.41204,306.162037 C1251.51535,307.631353 1256.28068,312.396686 1257.75,318.5 Z" id="Triangle" fill="url(#linearGradient-5)"></path>
    </g>
</svg>