<?xml version="1.0" encoding="UTF-8"?>
<svg width="1920px" height="2880px" viewBox="0 0 1920 2880" version="1.1" xmlns="http://www.w3.org/2000/svg" xmlns:xlink="http://www.w3.org/1999/xlink">
    <!-- Generator: Sketch 61 (89581) - https://sketch.com -->
    <title>bg2</title>
    <desc>Created with Sketch.</desc>
    <defs>
        <linearGradient x1="50%" y1="25.9781718%" x2="50.200466%" y2="56.7195527%" id="linearGradient-1">
            <stop stop-color="#FAFDFF" offset="0%"></stop>
            <stop stop-color="#EFF6FF" offset="13.8645481%"></stop>
            <stop stop-color="#F8FBFF" stop-opacity="0" offset="100%"></stop>
        </linearGradient>
        <linearGradient x1="50%" y1="28.9573876%" x2="50.200466%" y2="55.8861858%" id="linearGradient-2">
            <stop stop-color="#FAFDFF" offset="0%"></stop>
            <stop stop-color="#EFF6FF" offset="13.8645481%"></stop>
            <stop stop-color="#F8FBFF" stop-opacity="0" offset="100%"></stop>
        </linearGradient>
        <linearGradient x1="50%" y1="23.6174229%" x2="50.200466%" y2="57.3799178%" id="linearGradient-3">
            <stop stop-color="#FAFDFF" offset="0%"></stop>
            <stop stop-color="#EFF6FF" offset="13.8645481%"></stop>
            <stop stop-color="#F8FBFF" stop-opacity="0" offset="100%"></stop>
        </linearGradient>
        <linearGradient x1="50%" y1="0.182115709%" x2="50%" y2="99.1174253%" id="linearGradient-4">
            <stop stop-color="#EFF4FB" offset="0%"></stop>
            <stop stop-color="#E2EFFF" offset="100%"></stop>
        </linearGradient>
        <linearGradient x1="50%" y1="0.182115709%" x2="50%" y2="99.1174253%" id="linearGradient-5">
            <stop stop-color="#EFF4FB" offset="0%"></stop>
            <stop stop-color="#E2EFFF" offset="100%"></stop>
        </linearGradient>
        <linearGradient x1="50%" y1="0.182115709%" x2="50%" y2="99.1174253%" id="linearGradient-6">
            <stop stop-color="#EFF4FB" offset="0%"></stop>
            <stop stop-color="#E2EFFF" offset="100%"></stop>
        </linearGradient>
    </defs>
    <g id="bg2" stroke="none" stroke-width="1" fill="none" fill-rule="evenodd">
        <g id="Group" transform="translate(247.000000, 155.000000)">
            <path d="M953.137979,0 L652.073518,136.771626 C621.400935,150.705981 607.83192,186.867049 621.766275,217.539633 C630.664639,237.12689 649.222892,250.578441 670.606584,252.94048 L1038.1907,293.543766 C1071.6764,297.242592 1095.82344,327.386608 1092.12461,360.872312 C1089.21138,387.245964 1069.58333,408.711334 1043.5749,413.966608 L969.014907,429.03223 C935.992911,435.704667 914.632373,467.883363 921.30481,500.905359 C926.320927,525.730197 946.154974,544.873188 971.142023,549.006148 L1027.34405,558.302193 C1060.58182,563.799856 1083.06962,595.201129 1077.57195,628.438899 C1073.56689,652.652709 1055.44034,672.108133 1031.56988,677.813422 C888.796265,711.937807 802.60685,729 773.001637,729" id="Path-6" stroke="url(#linearGradient-1)" stroke-width="50"></path>
            <path d="M572.064677,452 L227.758642,588.692691 C196.44666,601.123839 181.140719,636.584651 193.571867,667.896633 C201.900873,688.876008 221.134212,703.541072 243.570008,706.01929 L831.184844,770.926166 C864.670553,774.624937 888.817637,804.768914 885.118866,838.254623 C882.205669,864.628381 862.577516,886.093835 836.568969,891.349054 L567.142708,945.788616 C534.120693,952.460958 512.760062,984.639592 519.432403,1017.66161 C524.448471,1042.48658 544.28262,1061.62967 569.269796,1065.76259 L794.511429,1103.01793 C827.749212,1108.51551 850.237086,1139.91673 844.739503,1173.15451 C840.754382,1197.24811 822.78371,1216.64289 799.063327,1222.45033 C577.004722,1276.81678 445.096543,1304 403.338789,1304" id="Path-6" stroke="url(#linearGradient-2)" stroke-width="110"></path>
            <path d="M572.064677,1305 L200.873834,1470.00864 C170.089175,1483.69361 156.227136,1519.74337 169.912104,1550.52803 C178.607679,1570.08893 196.9204,1583.66033 218.165108,1586.28792 L873.111672,1667.29306 C906.546284,1671.42833 930.2981,1701.88473 926.162838,1735.31934 C923.005455,1760.84755 904.173615,1781.65181 879.084989,1787.32804 L530.923253,1866.09871 C498.064376,1873.53294 477.45363,1906.19696 484.887863,1939.05584 C490.268982,1962.84007 509.298022,1981.13425 533.275632,1985.57498 L662.414075,2009.49183 C716.128997,2019.44001 751.608953,2071.04915 741.660776,2124.76407 C734.673241,2162.49309 706.496007,2192.77698 669.367808,2202.46208 C524.873162,2240.15403 436.196822,2259 403.338789,2259" id="Path-6" stroke="url(#linearGradient-3)" stroke-width="110"></path>
            <path d="M305.167434,435.521709 L321.439892,503.194472 C322.989342,509.638218 319.021732,516.117984 312.577986,517.667434 C311.659167,517.888371 310.717467,518 309.772458,518 L277.227542,518 C270.600125,518 265.227542,512.627417 265.227542,506 C265.227542,505.054991 265.339171,504.113291 265.560108,503.194472 L281.832566,435.521709 C283.382016,429.077963 289.861782,425.110353 296.305528,426.659803 C300.689926,427.714067 304.11317,431.137311 305.167434,435.521709 Z" id="Triangle" fill="url(#linearGradient-4)"></path>
        </g>
        <g id="Group-2" transform="translate(331.000000, 1425.000000)">
            <path d="M61.6614153,102.045031 L96.4003785,245.169559 C97.9635877,251.609981 94.0098256,258.098206 87.5694038,259.661415 C86.6427277,259.886337 85.692545,260 84.7389632,260 L15.2610368,260 C8.63361977,260 3.26103677,254.627417 3.26103677,248 C3.26103677,247.046418 3.37470012,246.096235 3.5996215,245.169559 L38.3385847,102.045031 C39.9017939,95.6046091 46.3900188,91.6508471 52.8304406,93.2140562 C57.1946596,94.2733327 60.6021388,97.6808119 61.6614153,102.045031 Z" id="Triangle" fill="url(#linearGradient-5)"></path>
            <path d="M205.666325,48.4329238 L223.432595,122.189863 C224.98459,128.632997 221.01954,135.114329 214.576407,136.666325 C213.656134,136.887996 212.712864,137 211.76627,137 L176.23373,137 C169.606313,137 164.23373,131.627417 164.23373,125 C164.23373,124.053406 164.345734,123.110136 164.567405,122.189863 L182.333675,48.4329238 C183.885671,41.9897906 190.367003,38.0247401 196.810137,39.5767357 C201.190802,40.6319325 204.611128,44.0522585 205.666325,48.4329238 Z" id="Triangle" fill="url(#linearGradient-6)"></path>
        </g>
    </g>
</svg>