<?xml version="1.0" encoding="UTF-8"?>
<svg width="504px" height="1419px" viewBox="0 0 504 1419" version="1.1" xmlns="http://www.w3.org/2000/svg" xmlns:xlink="http://www.w3.org/1999/xlink">
    <!-- Generator: Sketch 61 (89581) - https://sketch.com -->
    <title>header_1_mobile</title>
    <desc>Created with Sketch.</desc>
    <defs>
        <linearGradient x1="41.6931609%" y1="44.6105613%" x2="51.4246742%" y2="58.8653323%" id="linearGradient-1">
            <stop stop-color="#FBFDFF" offset="0%"></stop>
            <stop stop-color="#F5F9FE" offset="100%"></stop>
        </linearGradient>
        <linearGradient x1="50%" y1="26.0309474%" x2="50.200466%" y2="56.7047899%" id="linearGradient-2">
            <stop stop-color="#FAFDFF" offset="0%"></stop>
            <stop stop-color="#EFF6FF" offset="13.8645481%"></stop>
            <stop stop-color="#F8FBFF" stop-opacity="0" offset="100%"></stop>
        </linearGradient>
        <linearGradient x1="50%" y1="0.182115709%" x2="50%" y2="100%" id="linearGradient-3">
            <stop stop-color="#FFFFFF" offset="0%"></stop>
            <stop stop-color="#DAE6F6" offset="100%"></stop>
        </linearGradient>
        <linearGradient x1="50%" y1="0.182115709%" x2="50%" y2="100%" id="linearGradient-4">
            <stop stop-color="#FFFFFF" offset="0%"></stop>
            <stop stop-color="#DAE6F6" offset="100%"></stop>
        </linearGradient>
    </defs>
    <g id="header_1_mobile" stroke="none" stroke-width="1" fill="none" fill-rule="evenodd">
        <rect id="Rectangle" fill="url(#linearGradient-1)" x="-801" y="0" width="1920" height="794"></rect>
        <path d="M610.297561,0 L149.322854,209.18764 C118.644505,223.109296 105.060521,259.264744 118.982177,289.943094 C127.877232,309.544611 146.444677,323.006988 167.840199,325.367737 L845.759442,400.16829 C879.245589,403.8631 903.39624,434.00422 899.701431,467.490366 C896.790542,493.871822 877.15506,515.343304 851.138156,520.594512 L527.97611,585.820992 C494.952691,592.486383 473.585288,624.66052 480.250679,657.683939 C485.263221,682.518382 505.104747,701.66929 530.101118,705.799248 L801.828197,750.694621 C835.06694,756.186402 857.560296,787.583695 852.068514,820.822437 C848.089498,844.905244 830.137078,864.297322 806.432079,870.118593 C562.425986,930.039531 417.888615,960 372.819967,960" id="Path-6" stroke="url(#linearGradient-2)" stroke-width="50"></path>
        <path d="M130.590759,142.80066 L154.085055,217.395051 C156.076014,223.716344 152.565584,230.454755 146.244292,232.445713 C145.077904,232.813079 143.862215,233 142.639343,233 L96.2381073,233 C89.6106903,233 84.2381073,227.627417 84.2381073,221 C84.2381073,219.806009 84.4163037,218.618703 84.766808,217.477318 L107.673747,142.882927 C109.619271,136.547503 116.332305,132.988786 122.667729,134.93431 C126.442012,136.093342 129.40466,139.034795 130.590759,142.80066 Z" id="Triangle" fill="url(#linearGradient-3)"></path>
        <path d="M298.152049,269.967622 L317.109693,330.408652 C319.093139,336.732305 315.574707,343.466541 309.251053,345.449988 C308.088791,345.814537 306.877798,346 305.659705,346 L268.218359,346 C261.590942,346 256.218359,340.627417 256.218359,334 C256.218359,332.810689 256.395161,331.627985 256.742968,330.490667 L275.226671,270.049637 C277.164822,263.711954 283.873711,260.145428 290.211394,262.08358 C293.996568,263.241138 296.967438,266.190827 298.152049,269.967622 Z" id="Triangle" fill="url(#linearGradient-4)"></path>
        <path d="M372.590759,306.80066 L396.085055,381.395051 C398.076014,387.716344 394.565584,394.454755 388.244292,396.445713 C387.077904,396.813079 385.862215,397 384.639343,397 L338.238107,397 C331.61069,397 326.238107,391.627417 326.238107,385 C326.238107,383.806009 326.416304,382.618703 326.766808,381.477318 L349.673747,306.882927 C351.619271,300.547503 358.332305,296.988786 364.667729,298.93431 C368.442012,300.093342 371.40466,303.034795 372.590759,306.80066 Z" id="Triangle" fill="url(#linearGradient-3)"></path>
        <rect id="Rectangle" fill="#F6FAFF" x="0" y="679" width="504" height="740"></rect>
    </g>
</svg>