<?xml version="1.0" encoding="UTF-8"?>
<svg width="40px" height="40px" viewBox="0 0 40 40" version="1.1" xmlns="http://www.w3.org/2000/svg" xmlns:xlink="http://www.w3.org/1999/xlink">
    <!-- Generator: Sketch 61 (89581) - https://sketch.com -->
    <title>Group 49</title>
    <desc>Created with Sketch.</desc>
    <g id="New---Redesign---02" stroke="none" stroke-width="1" fill="none" fill-rule="evenodd">
        <g id="Group-49" stroke="#151C59">
            <g id="Group-46">
                <path d="M9.64305862,0.75 C5.78257303,0.75 2.59918411,3.77511174 2.40247641,7.63058254 L1.17798662,31.6305825 C1.17170911,31.7536217 1.16856883,31.8768008 1.16856883,32 C1.16856883,36.0040644 4.41450439,39.25 8.41856883,39.25 L31.5814312,39.25 C31.7046303,39.25 31.8278095,39.2468597 31.9508486,39.2405822 C35.9497118,39.0365586 39.026037,35.6294457 38.8220134,31.6305825 L37.5975236,7.63058254 C37.4008159,3.77511174 34.217427,0.75 30.3569414,0.75 L9.64305862,0.75 Z" id="Rectangle" stroke-width="1.5"></path>
                <path d="M9.79591837,20.4081633 L9.79591837,16.7346939 C9.79591837,11.0991352 14.3644413,6.53061224 20,6.53061224 C25.6355587,6.53061224 30.2040816,11.0991352 30.2040816,16.7346939 L30.2040816,20.4081633 L30.2040816,20.4081633" id="Path-24" stroke-width="1.7" stroke-linecap="round" transform="translate(20.000000, 13.469388) scale(1, -1) translate(-20.000000, -13.469388) "></path>
            </g>
        </g>
    </g>
</svg>