<svg width="991" height="236" viewBox="0 0 991 236" fill="none" xmlns="http://www.w3.org/2000/svg">
<path d="M839.778 121.922C839.778 131.412 838.077 140.269 834.677 148.494C831.276 156.64 826.65 163.718 820.797 169.728C814.945 175.659 808.065 180.365 800.156 183.845C792.327 187.245 783.904 188.946 774.889 188.946C765.952 188.946 757.53 187.245 749.621 183.845C741.792 180.365 734.912 175.659 728.98 169.728C723.128 163.718 718.502 156.64 715.101 148.494C711.7 140.269 710 131.412 710 121.922C710 112.273 711.7 103.337 715.101 95.1119C718.502 86.8871 723.128 79.809 728.98 73.8777C734.912 67.8673 741.792 63.1617 749.621 59.7611C757.53 56.3605 765.952 54.6602 774.889 54.6602C783.904 54.6602 792.327 56.2814 800.156 59.5239C808.065 62.6872 814.945 67.2346 820.797 73.1659C826.65 79.0182 831.276 86.0963 834.677 94.4001C838.077 102.625 839.778 111.799 839.778 121.922ZM807.155 121.922C807.155 116.702 806.285 111.996 804.546 107.805C802.885 103.534 800.591 99.8965 797.665 96.8913C794.739 93.807 791.299 91.474 787.345 89.8923C783.47 88.2315 779.318 87.4011 774.889 87.4011C770.46 87.4011 766.269 88.2315 762.314 89.8923C758.439 91.474 755.039 93.807 752.113 96.8913C749.265 99.8965 747.012 103.534 745.351 107.805C743.69 111.996 742.86 116.702 742.86 121.922C742.86 126.825 743.69 131.372 745.351 135.564C747.012 139.755 749.265 143.393 752.113 146.477C755.039 149.562 758.439 152.013 762.314 153.832C766.269 155.572 770.46 156.442 774.889 156.442C779.318 156.442 783.47 155.612 787.345 153.951C791.299 152.29 794.739 149.957 797.665 146.952C800.591 143.947 802.885 140.309 804.546 136.038C806.285 131.768 807.155 127.062 807.155 121.922Z" fill="#004243"/>
<path d="M990.777 121.924C990.777 131.415 989.076 140.272 985.676 148.497C982.275 156.643 977.649 163.721 971.796 169.731C965.944 175.662 959.064 180.368 951.155 183.848C943.326 187.248 934.904 188.949 925.888 188.949C916.951 188.949 908.529 187.248 900.62 183.848C892.791 180.368 885.911 175.662 879.979 169.731C874.127 163.721 869.501 156.643 866.1 148.497C862.699 140.272 860.999 131.415 860.999 121.924C860.999 112.276 862.699 103.34 866.1 95.1148C869.501 86.89 874.127 79.812 879.979 73.8806C885.911 67.8702 892.791 63.1647 900.62 59.764C908.529 56.3634 916.951 54.6631 925.888 54.6631C934.904 54.6631 943.326 56.2843 951.155 59.5268C959.064 62.6902 965.944 67.2375 971.796 73.1689C977.649 79.0211 982.275 86.0992 985.676 94.4031C989.076 102.628 990.777 111.802 990.777 121.924ZM958.154 121.924C958.154 116.705 957.284 111.999 955.545 107.808C953.884 103.537 951.59 99.8994 948.664 96.8942C945.738 93.8099 942.298 91.4769 938.344 89.8952C934.469 88.2345 930.317 87.4041 925.888 87.4041C921.459 87.4041 917.268 88.2345 913.313 89.8952C909.438 91.4769 906.038 93.8099 903.112 96.8942C900.264 99.8994 898.011 103.537 896.35 107.808C894.689 111.999 893.859 116.705 893.859 121.924C893.859 126.828 894.689 131.375 896.35 135.567C898.011 139.758 900.264 143.396 903.112 146.48C906.038 149.565 909.438 152.016 913.313 153.835C917.268 155.575 921.459 156.445 925.888 156.445C930.317 156.445 934.469 155.614 938.344 153.954C942.298 152.293 945.738 149.96 948.664 146.955C951.59 143.95 953.884 140.312 955.545 136.041C957.284 131.77 958.154 127.065 958.154 121.924Z" fill="#004243"/>
<path d="M699.135 121.924C699.135 131.415 697.435 140.272 694.034 148.497C690.634 156.643 686.007 163.721 680.155 169.731C674.303 175.662 667.422 180.368 659.514 183.848C651.685 187.248 643.262 188.949 634.247 188.949C625.31 188.949 616.887 187.248 608.979 183.848C601.15 180.368 594.269 175.662 588.338 169.731C582.486 163.721 577.859 156.643 574.459 148.497C571.058 140.272 569.358 131.415 569.358 121.924C569.358 112.276 571.058 103.34 574.459 95.1148C577.859 86.89 582.486 79.812 588.338 73.8806C594.269 67.8702 601.15 63.1647 608.979 59.764C616.887 56.3634 625.31 54.6631 634.247 54.6631C643.262 54.6631 651.685 56.2843 659.514 59.5268C667.422 62.6902 674.303 67.2375 680.155 73.1689C686.007 79.0211 690.634 86.0992 694.034 94.4031C697.435 102.628 699.135 111.802 699.135 121.924ZM666.513 121.924C666.513 116.705 665.643 111.999 663.903 107.808C662.242 103.537 659.949 99.8994 657.023 96.8942C654.097 93.8099 650.657 91.4769 646.702 89.8952C642.827 88.2345 638.675 87.4041 634.247 87.4041C629.818 87.4041 625.626 88.2345 621.672 89.8952C617.797 91.4769 614.396 93.8099 611.47 96.8942C608.623 99.8994 606.369 103.537 604.708 107.808C603.048 111.999 602.217 116.705 602.217 121.924C602.217 126.828 603.048 131.375 604.708 135.567C606.369 139.758 608.623 143.396 611.47 146.48C614.396 149.565 617.797 152.016 621.672 153.835C625.626 155.575 629.818 156.445 634.247 156.445C638.675 156.445 642.827 155.614 646.702 153.954C650.657 152.293 654.097 149.96 657.023 146.955C659.949 143.95 662.242 140.312 663.903 136.041C665.643 131.77 666.513 127.065 666.513 121.924Z" fill="#004243"/>
<path d="M553.084 138.579C553.084 145.47 551.815 151.992 549.278 158.144C546.74 164.214 543.251 169.506 538.811 174.017C534.449 178.529 529.295 182.098 523.348 184.723C517.48 187.348 511.176 188.66 504.436 188.66C498.41 188.66 492.621 187.594 487.071 185.461C481.52 183.246 476.485 180.047 471.965 175.863C467.524 180.047 462.529 183.246 456.978 185.461C451.507 187.594 445.718 188.66 439.612 188.66C432.872 188.66 426.568 187.348 420.7 184.723C414.833 182.098 409.678 178.529 405.238 174.017C400.877 169.506 397.427 164.214 394.89 158.144C392.352 151.992 391.084 145.47 391.084 138.579V70.8958C391.084 61.9291 398.353 54.6602 407.319 54.6602C416.286 54.6602 423.555 61.9291 423.555 70.8958V138.579C423.555 140.876 423.952 143.05 424.745 145.101C425.617 147.07 426.767 148.833 428.194 150.392C429.7 151.869 431.405 153.058 433.308 153.96C435.291 154.781 437.392 155.191 439.612 155.191C441.833 155.191 443.934 154.781 445.916 153.96C447.899 153.058 449.643 151.869 451.15 150.392C452.656 148.833 453.806 147.07 454.599 145.101C455.471 143.05 455.908 140.876 455.908 138.579V70.8364C455.908 61.9025 463.15 54.6602 472.084 54.6602C481.018 54.6602 488.26 61.9025 488.26 70.8364V138.579C488.26 140.876 488.696 143.05 489.568 145.101C490.441 147.07 491.59 148.833 493.018 150.392C494.524 151.869 496.229 153.058 498.132 153.96C500.115 154.781 502.216 155.191 504.436 155.191C506.656 155.191 508.758 154.781 510.74 153.96C512.723 153.058 514.427 151.869 515.855 150.392C517.361 148.833 518.551 147.07 519.423 145.101C520.295 143.05 520.731 140.876 520.731 138.579V70.8364C520.731 61.9025 527.974 54.6602 536.908 54.6602C545.841 54.6602 553.084 61.9025 553.084 70.8364V138.579Z" fill="#004243"/>
<path d="M374.572 121.924C374.572 131.415 372.872 140.272 369.471 148.497C366.071 156.643 361.444 163.721 355.592 169.731C349.74 175.662 342.86 180.368 334.951 183.848C327.122 187.248 318.699 188.949 309.684 188.949C300.747 188.949 292.324 187.248 284.416 183.848C276.587 180.368 269.706 175.662 263.775 169.731C257.923 163.721 253.296 156.643 249.896 148.497C246.495 140.272 244.795 131.415 244.795 121.924C244.795 112.276 246.495 103.34 249.896 95.1148C253.296 86.89 257.923 79.812 263.775 73.8806C269.706 67.8702 276.587 63.1647 284.416 59.764C292.324 56.3634 300.747 54.6631 309.684 54.6631C318.699 54.6631 327.122 56.2843 334.951 59.5268C342.86 62.6902 349.74 67.2375 355.592 73.1689C361.444 79.0211 366.071 86.0992 369.471 94.4031C372.872 102.628 374.572 111.802 374.572 121.924ZM341.95 121.924C341.95 116.705 341.08 111.999 339.34 107.808C337.679 103.537 335.386 99.8994 332.46 96.8942C329.534 93.8099 326.094 91.4769 322.139 89.8952C318.264 88.2345 314.112 87.4041 309.684 87.4041C305.255 87.4041 301.063 88.2345 297.109 89.8952C293.234 91.4769 289.833 93.8099 286.907 96.8942C284.06 99.8994 281.806 103.537 280.145 107.808C278.485 111.999 277.654 116.705 277.654 121.924C277.654 126.828 278.485 131.375 280.145 135.567C281.806 139.758 284.06 143.396 286.907 146.48C289.833 149.565 293.234 152.016 297.109 153.835C301.063 155.575 305.255 156.445 309.684 156.445C314.112 156.445 318.264 155.614 322.139 153.954C326.094 152.293 329.534 149.96 332.46 146.955C335.386 143.95 337.679 140.312 339.34 136.041C341.08 131.77 341.95 127.065 341.95 121.924Z" fill="#004243"/>
<path d="M118.669 0V6.95944C118.669 40.4601 99.9744 55.6755 76.9127 55.6755L70.2955 55.6752C71.0315 45.1932 74.2938 38.8504 82.8138 31.3136C87.0034 27.6074 86.6506 25.4677 84.585 26.6968C70.3752 35.1507 63.3178 46.5802 63.0048 64.8279L62.9939 66.1147H56.0344C56.0344 61.3729 56.4371 57.0664 57.2376 53.1291C56.4355 48.6259 56.0344 42.5138 56.0344 34.7972C56.0344 15.5792 71.6137 0 90.8314 0C97.7909 0 104.75 3.47972 118.669 0Z" fill="url(#paint0_linear_69_288)"/>
<path d="M12 16.7026V21.4977C12 44.5794 24.6899 55.0628 40.3439 55.0628L44.8356 55.0626C44.336 47.8405 42.1216 43.4704 36.3383 38.2776C33.4944 35.724 33.7339 34.2498 35.136 35.0966C44.7815 40.9213 49.572 48.7962 49.7845 61.3687L49.7919 62.2553H54.5159C54.5159 58.9882 54.2426 56.0211 53.6992 53.3083C54.2436 50.2057 54.5159 45.9945 54.5159 40.6777C54.5159 27.4366 43.9408 16.7026 30.896 16.7026C26.172 16.7026 21.448 19.1001 12 16.7026Z" fill="url(#paint1_linear_69_288)"/>
<path d="M860.999 124.321H892.886V219.222C892.886 228.028 885.748 235.166 876.942 235.166C868.137 235.166 860.999 228.028 860.999 219.222V124.321Z" fill="#004243"/>
<path d="M130 167.266C130 176.49 128.303 185.143 124.908 193.225C121.513 201.306 116.856 208.368 110.935 214.408C105.092 220.449 98.2238 225.224 90.3291 228.734C82.5133 232.245 74.1446 234 65.2236 234C56.2244 233.864 49.0001 226.53 49 217.529V216.315C49 207.525 56.1979 200.437 64.9873 200.571C70.0397 200.571 74.342 199.877 77.8945 198.489C81.447 197.183 84.4472 195.347 86.8945 192.979C89.3418 190.694 91.2762 188.041 92.6973 185.021C93.6611 183.08 94.4932 181.071 95.1963 178.995C115.818 167.22 129.873 144.093 130 117.454V167.266ZM130 116.887C129.999 116.51 129.996 116.135 129.989 115.76H130V116.887Z" fill="#004243"/>
<path d="M65 54.6602C74.031 54.6602 82.4678 56.2901 90.3105 59.5498C98.2325 62.73 105.125 67.3018 110.987 73.2646C116.849 79.148 121.484 86.2634 124.891 94.6113C128.297 102.88 130 112.103 130 122.279C130 131.82 128.297 140.725 124.891 148.993C121.484 157.182 116.85 164.298 110.987 170.341C105.125 176.304 98.2325 181.034 90.3105 184.532C82.4678 187.951 74.031 189.66 65 189.66C56.0482 189.66 47.6114 187.951 39.6895 184.532C31.8468 181.034 24.9542 176.304 19.0127 170.341C13.1504 164.298 8.51583 157.182 5.10938 148.993C1.70295 140.725 0 131.82 0 122.279C1.37761e-05 112.58 1.70297 103.596 5.10938 95.3271C8.51583 87.0586 13.1504 79.9424 19.0127 73.9795C24.9542 67.9372 31.8468 63.2068 39.6895 59.7881C47.6114 56.3694 56.0482 54.6602 65 54.6602ZM65 87.5752C60.5637 87.5752 56.3653 88.4105 52.4043 90.0801C48.5225 91.6702 45.1157 94.0155 42.1846 97.1162C39.3327 100.137 37.0747 103.795 35.4111 108.088C33.7476 112.302 32.916 117.032 32.916 122.279C32.916 127.209 33.7475 131.78 35.4111 135.994C37.0747 140.208 39.3327 143.865 42.1846 146.966C45.1157 150.067 48.5225 152.531 52.4043 154.359C56.3653 156.108 60.5637 156.983 65 156.983C69.4363 156.983 73.5958 156.149 77.4775 154.479C81.4385 152.81 84.8843 150.464 87.8154 147.442C90.7464 144.421 93.0435 140.764 94.707 136.471C96.4498 132.177 97.3213 127.447 97.3213 122.279C97.3213 117.032 96.4499 112.302 94.707 108.088C93.0434 103.795 90.7465 100.137 87.8154 97.1162C84.8844 94.0156 81.4384 91.6702 77.4775 90.0801C73.5958 88.4105 69.4363 87.5752 65 87.5752Z" fill="#004243"/>
<path d="M224.986 54.6602C234.425 54.6603 242.077 62.312 242.077 71.751C242.077 81.19 234.425 88.8416 224.986 88.8418H211.791C208.188 88.8418 204.795 89.5121 201.611 90.8525C198.428 92.193 195.663 94.0361 193.317 96.3818C190.972 98.7277 189.129 101.493 187.788 104.677C186.448 107.86 185.777 111.253 185.777 114.855V171.847C185.777 181.32 178.097 189.001 168.623 189.001C159.149 189.001 151.47 181.32 151.47 171.847V120.249C151.485 119.482 151.49 118.613 151.483 117.638L151.47 116.382V114.257C151.824 87.6826 166.422 73.9116 171.067 70.2988L171.074 70.2197V70.3682C176.604 65.3416 182.887 61.4875 189.924 58.8066C196.961 56.0419 204.251 54.6602 211.791 54.6602H224.986Z" fill="#004243"/>
<defs>
<linearGradient id="paint0_linear_69_288" x1="69.7002" y1="55.4224" x2="118.29" y2="4.16132e-06" gradientUnits="userSpaceOnUse">
<stop stop-color="#004243"/>
<stop offset="1" stop-color="#14B698"/>
</linearGradient>
<linearGradient id="paint1_linear_69_288" x1="12" y1="16.7026" x2="54.5159" y2="62.2553" gradientUnits="userSpaceOnUse">
<stop stop-color="#00A6A9"/>
<stop offset="1" stop-color="#004243"/>
</linearGradient>
</defs>
</svg>
