<?xml version="1.0" encoding="UTF-8"?>
<svg width="1000px" height="1000px" viewBox="0 0 1000 1000" version="1.1" xmlns="http://www.w3.org/2000/svg" xmlns:xlink="http://www.w3.org/1999/xlink">
    <!-- Generator: Sketch 61 (89581) - https://sketch.com -->
    <title>newproduct-slide01-hover</title>
    <desc>Created with Sketch.</desc>
    <g id="newproduct-slide01-hover" stroke="none" stroke-width="1" fill="none" fill-rule="evenodd">
        <rect id="newproduct-slide01" stroke="#A1BDE1" fill="#D5DFFA" x="0.5" y="0.5" width="999" height="999"></rect>
        <g id="Group" transform="translate(279.000000, 302.000000)" stroke="#FFFFFF" stroke-width="4">
            <path d="M176.080405,107.301234 C175.977523,107.168578 175.858348,107.049404 175.725692,106.946521 C174.852858,106.269591 173.596526,106.428401 172.919595,107.301234 L6.58381128,321.774308 C6.31182904,322.125002 6.16421617,322.556198 6.16421617,323 C6.16421617,324.104569 7.05964667,325 8.16421617,325 L340.835784,325 C341.279586,325 341.710782,324.852387 342.061476,324.580405 C342.934309,323.903474 343.09312,322.647142 342.416189,321.774308 L176.080405,107.301234 Z" id="Triangle" fill="#D5DFFA"></path>
            <path d="M269.080405,107.301234 C268.977523,107.168578 268.858348,107.049404 268.725692,106.946521 C267.852858,106.269591 266.596526,106.428401 265.919595,107.301234 L99.5838113,321.774308 C99.311829,322.125002 99.1642162,322.556198 99.1642162,323 C99.1642162,324.104569 100.059647,325 101.164216,325 L433.835784,325 C434.279586,325 434.710782,324.852387 435.061476,324.580405 C435.934309,323.903474 436.09312,322.647142 435.416189,321.774308 L269.080405,107.301234 Z" id="Triangle" fill="#E6EDFF"></path>
            <circle id="Oval" fill="#D4E0FF" cx="178" cy="43" r="41"></circle>
        </g>
    </g>
</svg>